<svg xmlns="http://www.w3.org/2000/svg" viewBox="0 0 24 24" fill="#1976d2" width="24" height="24">
  <!-- Anchor icon -->
  <path d="M12 2C11.45 2 11 2.45 11 3v5c0 1.1-.9 2-2 2s-2-.9-2-2V3c0-.55-.45-1-1-1s-1 .45-1 1v5c0 2.21 1.79 4 4 4s4-1.79 4-4V3c0-.55-.45-1-1-1zm0 14c-3.87 0-7.43 1.13-10.49 3.09C.59 20.01 0 20.99 0 22c0 1.1.9 2 2 2h20c1.1 0 2-.9 2-2c0-1.01-.59-1.99-1.51-2.91C19.43 17.13 15.87 16 12 16zm6-8c-1.1 0-2-.9-2-2V3c0-.55-.45-1-1-1s-1 .45-1 1v5c0 2.21 1.79 4 4 4s4-1.79 4-4V3c0-.55-.45-1-1-1s-1 .45-1 1v5c0 1.1-.9 2-2 2z"/>
</svg>