<svg xmlns="http://www.w3.org/2000/svg" viewBox="0 0 24 24" fill="#1976d2" width="24" height="24">
  <!-- Anchor icon -->
  <path d="M12 1C6.48 1 2 5.48 2 11c0 4.25 2.67 7.9 6.44 9.49.45.12.61.53.21.95-.28.3-.75.42-1.18.21C4.2 19.74 1 16.08 1 11.5 1 5.04 6.04 0 12.5 0 18.96 0 24 5.04 24 11.5c0 4.58-3.2 8.24-7.47 9.65-.43.21-.9.09-1.18-.21-.4-.42-.24-.83.21-.95C19.33 18.9 22 15.25 22 11c0-5.52-4.48-10-10-10zm0 18c-4.42 0-8-3.58-8-8s3.58-8 8-8 8 3.58 8 8-3.58 8-8 8zm3.5-9c.83 0 1.5-.67 1.5-1.5S16.33 7 15.5 7 14 7.67 14 8.5s.67 1.5 1.5 1.5zm-7 0c.83 0 1.5-.67 1.5-1.5S9.33 7 8.5 7 7 7.67 7 8.5 7.67 10 8.5 10zm3.5 6.5c2.33 0 4.31-1.46 5.11-3.5H6.89c.8 2.04 2.78 3.5 5.11 3.5z"/>
</svg>